Coordinates
version=1
nRows=7
nColumns=40
inDegrees=yes

Units are S.I. units (second, meters, Newtons, ...)
Angles are in degrees.

endheader
time	pelvis_tilt	pelvis_list	pelvis_rotation	pelvis_tx	pelvis_ty	pelvis_tz	hip_flexion_r	hip_adduction_r	hip_rotation_r	knee_angle_r	knee_angle_r_beta	ankle_angle_r	subtalar_angle_r	mtp_angle_r	hip_flexion_l	hip_adduction_l	hip_rotation_l	knee_angle_l	knee_angle_l_beta	ankle_angle_l	subtalar_angle_l	mtp_angle_l	lumbar_extension	lumbar_bending	lumbar_rotation	arm_flex_r	arm_add_r	arm_rot_r	elbow_flex_r	pro_sup_r	wrist_flex_r	wrist_dev_r	arm_flex_l	arm_add_l	arm_rot_l	elbow_flex_l	pro_sup_l	wrist_flex_l	wrist_dev_l
     36.32250000	     -2.29299831	     -4.97632118	     -2.16795265	      0.95068749	      0.92561896	      0.48043501	     18.92859120	      3.49816469	    -13.45898584	     20.59748475	     20.59748475	      6.49449128	     -2.54373699	     -3.31016467	      4.22456425	    -10.54840088	     -9.61996097	     38.59907793	     38.59907793	     14.04125492	    -14.22820368	     -5.80757573	     -7.12511974	      6.87305311	      1.89929635	     -5.77134714	    -10.54937628	     -6.75666551	     23.77380693	     46.37468814	      0.00000000	      0.00000000	     17.11811065	    -12.22849248	    -12.11630020	     66.07410443	     47.42049716	      0.00000000	      0.00000000
     36.33428571	     -2.23061773	     -5.00662206	     -1.87273335	      0.95103649	      0.92637722	      0.48248042	     18.24112282	      3.49011621	    -14.18041717	     20.52329244	     20.52329244	      7.37218594	     -1.45934042	     -2.78489181	      5.97906356	    -11.06819684	     -8.61838372	     42.24356619	     42.24356619	     11.44413477	    -15.94684770	     -7.41212273	     -7.02316139	      6.86199798	      2.42638659	     -4.93530855	    -10.72923125	     -5.97342575	     24.74010244	     46.29083638	      0.00000000	      0.00000000	     17.77849543	    -11.41744628	    -11.57225437	     61.23110548	     47.31139376	      0.00000000	      0.00000000
     36.34607143	     -2.08453515	     -5.19827568	     -1.52421424	      0.95126440	      0.92704952	      0.48450472	     17.40090593	      3.73818983	    -14.69366832	     20.27102385	     20.27102385	      7.85029395	     -1.02217781	     -2.91628974	      7.84496020	    -11.81382443	     -7.67589102	     46.12559318	     46.12559318	      9.72393460	    -16.75376158	     -7.10944074	     -7.17233037	      6.98845764	      2.37798047	     -3.55962815	    -10.86817971	     -5.94133688	     25.47773088	     46.27064748	      0.00000000	      0.00000000	     16.91613205	    -11.04590921	    -11.26607877	     60.05561050	     47.26312075	      0.00000000	      0.00000000
     36.35785714	     -2.04995349	     -5.20069897	     -1.17105820	      0.95132283	      0.92755851	      0.48603568	     16.71573554	      3.67283368	    -15.50619847	     20.09767805	     20.09767805	      8.42015812	      0.08279674	     -3.01919214	     10.02301111	    -12.12299544	     -6.47913661	     50.13569830	     50.13569830	      9.61283760	    -16.98785101	     -2.60922091	     -7.08894829	      6.97978739	      2.80233172	     -2.77277257	    -11.21225510	     -5.29006256	     27.04907258	     46.16893016	      0.00000000	      0.00000000	     17.38276761	    -10.45399393	    -10.21736952	     55.41367532	     47.11257718	      0.00000000	      0.00000000
     36.36964286	     -1.97420228	     -5.31600474	     -0.77755298	      0.95127873	      0.92797021	      0.48750209	     15.98034559	      3.78165680	    -16.16946913	     19.87401034	     19.87401034	      8.89089901	      0.77344828	     -3.16481496	     12.14285507	    -12.53486964	     -5.35340485	     53.79062685	     53.79062685	      9.38871696	    -17.21444663	      1.04315091	     -7.11390621	      7.08309120	      3.02983912	     -1.71512804	    -11.57347622	     -4.92695323	     28.33745153	     46.10589450	      0.00000000	      0.00000000	     17.13493901	     -9.99279847	     -9.33341807	     52.45261085	     46.98850679	      0.00000000	      0.00000000
     36.38142857	     -1.89331886	     -5.36098267	     -0.45371800	      0.95114677	      0.92847539	      0.48887647	     15.23406092	      3.85696132	    -16.63645548	     19.61064323	     19.61064323	      9.27602945	      1.35155666	     -3.27635560	     14.15205128	    -12.87204435	     -4.49894521	     56.95095457	     56.95095457	      9.17576775	    -17.36225414	      4.18560036	     -7.18493365	      7.11861186	      3.20439368	     -0.36195583	    -11.93434057	     -4.74397735	     29.43243395	     46.06765948	      0.00000000	      0.00000000	     16.85057381	     -9.59544122	     -8.50493167	     49.46327141	     46.86421941	      0.00000000	      0.00000000
     36.39321429	     -1.90305956	     -5.51277072	     -0.07148102	      0.95090094	      0.92879818	      0.49013065	     14.53313183	      4.06688022	    -17.19297129	     19.19907501	     19.19907501	      9.53028754	      1.84294312	     -3.33056512	     16.18659910	    -13.32171088	     -3.72425129	     59.57695441	     59.57695441	      8.52109809	    -17.78944012	      5.14373181	     -7.10236272	      7.23066122	      2.82675551	      1.38174072	    -12.16198444	     -4.80051529	     30.31724935	     46.05120043	      0.00000000	      0.00000000	     15.88150620	     -9.40792037	     -8.04963176	     47.41638918	     46.78691989	      0.00000000	      0.00000000
